#!OML:ASF F:\VICON\USERDATA\INSTALL\rory3\rory3.ASF
:FULLY-SPECIFIED
:DEGREES
64
root -0.17652143806886966 18.118081539005175 23.340376291608806 -4.200035150875863 0.1688270704448236 -4.3280087961096125
lfemur -7.807337165390475 -0.5500631492712351 -15.308338351936001
ltibia 53.93065343828616
lfoot 4.522977987988246 -10.328341253004684
ltoes -5.92310340961817
rfemur -13.453750997753584 3.356651629825752 29.42354351068343
rtibia 28.711138680403547
rfoot -4.922408925366634 -4.9984219057579775
rtoes 10.633371297061737
lowerback 8.74807420213375 0.054635039250715056 3.9619216262563057
upperback 0.4448034815945758 0.5345174210850455 2.278193019529973
thorax -4.548054939643507 0.2075842977809464 -0.10151518834624873
lowerneck -16.0603042755182 -2.7939305236948835 -2.214958035482366
upperneck 20.208413201420186 -3.5423089960198904 1.6560739411573213
head 9.061534675503394 -1.683266297471803 0.5452391882059965
lclavicle -4.532243013461826e-16 -7.763750426184037e-16
lhumerus -30.211893734948266 3.2824509606672567 80.06430024014954
lradius 28.84527028784418
lwrist 5.982106611491683
lhand -26.658768383050372 23.694652635228508
lfingers 7.12502
lthumb 0.09014991510492432 53.801376111963215
rclavicle -4.600183767854195e-16 -7.80638350470076e-16
rhumerus -33.02055624607795 -24.078217360315843 -75.2349363889573
rradius 21.533826004367825
rwrist 9.123889340153156
rhand -16.458613835514665 22.479686673704716
rfingers 7.12502
rthumb 9.880934988845667 -6.942002077418457
65
root -0.1658061040020964 18.113390304549515 23.59220459411118 -3.9312773655649798 -0.9089886598375403 -4.296988999029603
lfemur -11.825777982536035 1.055932315313123 -15.142137630904523
ltibia 56.3333764715986
lfoot -1.5508283768827793 -6.678726382268541
ltoes -6.6605209499676
rfemur -11.8446127690414 3.5713036560614446 29.729026038707023
rtibia 29.339793416807257
rfoot -4.736393451044017 -5.365726266013012
rtoes 9.507240996743052
lowerback 8.563143343577313 0.6229902460498369 4.258084972578349
upperback 0.324212653805419 1.355527961085503 2.014304348256424
thorax -4.571723499367198 0.6156787866218811 -0.6515335485005029
lowerneck -16.00582543375754 -2.771575793965074 -2.0596039137896196
upperneck 20.082338495978973 -3.5233464509851613 1.4636413569699993
head 9.005136879707743 -1.6779545644133875 0.46177300438777524
lclavicle -4.527689729905775e-16 -7.760224924067557e-16
lhumerus -31.208758135390863 3.9407146133218425 80.06781860576358
lradius 27.935654074402052
lwrist 6.316543042260263
lhand -27.59045365673676 22.199916045488326
lfingers 7.12502
lthumb -0.6221186246424013 52.585518564471904
rclavicle -4.569662066568778e-16 -7.781810193732225e-16
rhumerus -31.044330332801373 -21.552738772075596 -76.86643191889549
rradius 22.505537859814936
rwrist 7.663820802301451
rhand -16.530467696246152 21.738710093807942
rfingers 7.12502
rthumb 9.767409302575762 -7.801784677338648
66
root -0.15073406429704272 18.07484618725698 24.17224150475141 -3.499080089960884 -1.7017283321998813 -5.059678711887646
lfemur -16.16844732294874 2.01612716189651 -14.210521729073697
ltibia 57.21339142228763
lfoot -6.070513366509074 -3.772837307676558
ltoes -6.043350800106074
rfemur -10.573591808721002 3.700035544939928 30.646901135804487
rtibia 30.0978259767294
rfoot -5.040114448263257 -6.3194987802402975
rtoes 9.596453568649919
lowerback 8.584839406340711 1.0074363099726447 5.347726005454786
upperback 0.21482205848759256 1.9971832143104797 1.9725157658146772
thorax -4.6423586717036045 0.9057425436804684 -1.4810960263542825
lowerneck -15.996658725812257 -2.779221293080976 -1.966814073355985
upperneck 20.026275745303398 -3.5432866214089835 1.3307393397289458
head 8.98185859548145 -1.6835421575401537 0.40061340429455145
lclavicle -4.521022511819587e-16 -7.755075465421998e-16
lhumerus -32.38984808949189 5.046028572077096 79.80510932449756
lradius 27.174859107023302
lwrist 5.8668831755288045
lhand -27.24827056960891 23.37313723665338
lfingers 7.12502
lthumb -0.4443074221800216 53.133458305988555
rclavicle -4.561003815143498e-16 -7.777144846836084e-16
rhumerus -29.314617751802274 -18.786059065779032 -78.65110115459214
rradius 24.04773902846791
rwrist 5.852796698519306
rhand -16.853930902957725 20.177955141857797
rfingers 7.12502
rthumb 9.278663754197451 -9.745299844476396
67
root -0.1285020468136599 18.021177566007996 24.752478421091254 -2.90588491035275 -2.3514353921202944 -5.52391029770038
lfemur -20.320231095417135 2.2201978621174834 -13.72142561162765
ltibia 55.79136431192899
lfoot -7.867461149203034 -1.9654782561967612
ltoes -6.015168546288769
rfemur -9.029900229591323 3.6849877890980163 31.160544055680674
rtibia 30.519495104021424
rfoot -5.901714268912546 -7.043508567576572
rtoes 9.084908620317169
lowerback 8.744536627702981 1.2889204379278287 5.99148569697542
upperback 0.046286063113358006 2.479742769724944 1.8841807845004497
thorax -4.905850731537656 1.1280429181425222 -2.1241320955270595
lowerneck -15.990846687825323 -2.7637626770281716 -1.8719321537301137
upperneck 19.9034290473482 -3.5243416920840867 1.1842815994168645
head 8.935019315577074 -1.6793856683621549 0.330938687568188
lclavicle -4.520685442932826e-16 -7.754806963197361e-16
lhumerus -33.5562293931879 5.83125421783006 79.72529999608493
lradius 26.593786333442694
lwrist 5.985360566568028
lhand -27.88805061425862 21.915370939742527
lfingers 7.12502
lthumb -1.05813916472097 51.74464322511377
rclavicle -4.580160259593143e-16 -7.794683709533495e-16
rhumerus -27.587210584991467 -15.906196027535275 -80.15634744681091
rradius 25.67319655536002
rwrist 3.733501272855628
rhand -17.407078001383574 18.918035402774283
rfingers 7.12502
rthumb 8.765896439984065 -10.844704755194025
68
root -0.09238794986736681 17.9526089248095 25.590274780849604 -2.3630680184067065 -2.6780413741877096 -5.5665996856889475
lfemur -23.58710301120088 2.0474272650444294 -13.729674106656404
ltibia 52.36528342898418
lfoot -9.311413040370285 0.20444831173192668
ltoes -5.155594777486842
rfemur -7.891962835353587 3.7366166254027857 31.124435317354838
rtibia 31.036759723459674
rfoot -6.869524920026141 -7.781693560481681
rtoes 8.964789505923193
lowerback 8.985919785338815 1.4956900996154368 6.321764111831277
upperback -0.007175385489890648 2.7972076212736807 1.7476507567859272
thorax -5.0009494081109125 1.2587658697658528 -2.5775166584177285
lowerneck -16.099383859987075 -2.7739828060825222 -1.8292230225030026
upperneck 19.77344063993336 -3.540858044700777 1.1101534696483584
head 8.911457402417001 -1.689906107038291 0.2984334718115791
lclavicle -4.540753239609067e-16 -7.770312015609747e-16
lhumerus -34.47785541470492 6.617176365362015 79.62979186286567
lradius 25.998408290746326
lwrist 4.858370386618061
lhand -28.033294741957285 21.24271466306908
lfingers 7.12502
lthumb -1.3547342175213364 51.25600593639783
rclavicle -4.589061891696247e-16 -7.800646585617062e-16
rhumerus -25.996854355176815 -13.118990935596297 -81.33696039106941
rradius 27.432509495529562
rwrist 1.5360911649316762
rhand -18.09487349965402 19.025365225745446
rfingers 7.12502
rthumb 8.10905064851993 -10.86510046003188
69
root -0.05783279486399273 17.92232342475997 26.39805882207742 -1.6422549948192027 -2.8190059038631436 -5.765211003239334
lfemur -25.89212132588102 1.5559442954230978 -13.526347881238385
ltibia 46.840837139876285
lfoot -10.015285452733348 2.248405546376624
ltoes -4.568949585263631
rfemur -6.593360219114647 3.6102907455889786 30.9246609419344
rtibia 30.55686128105466
rfoot -6.719950850788815 -9.023636357735887
rtoes 8.142503546461711
lowerback 8.890083563815116 1.6272099767612884 6.726569112808968
upperback -0.06121146296135356 3.0631667420286073 1.6894811989407454
thorax -4.893311132491309 1.3849751535121047 -2.890048006283548
lowerneck -16.179314206732165 -2.800446373309445 -1.7871226983396016
upperneck 19.546681557240696 -3.564407709039258 1.0012892551447439
head 8.847780506207293 -1.7047192930981274 0.24204397074176665
lclavicle -4.552719032883102e-16 -7.779559165757479e-16
lhumerus -35.2548329130189 7.385869077945117 79.57622149238246
lradius 24.917179167224806
lwrist 4.773557713756013
lhand -28.97327423046669 19.421711180400113
lfingers 7.12502
lthumb -2.1691512991473143 49.77980027953156
rclavicle -4.565933674305808e-16 -7.783683322057473e-16
rhumerus -24.52894915436088 -11.216994163292973 -81.93255009646374
rradius 28.86021753834438
rwrist 0.16294377678334637
rhand -18.356805951991383 20.46433068173566
rfingers 7.12502
rthumb 7.90498679756872 -9.347960490447125
70
root -0.03354112794259784 17.862382829722918 27.207609695695297 -0.7762988618319289 -3.2442059125857234 -6.586634822856868
lfemur -27.076072604347623 0.14994746499779188 -12.068237942891566
ltibia 38.883433001136225
lfoot -9.951353338836883 4.052147167207754
ltoes -3.875650133071337
rfemur -4.841287013925406 4.051011005314335 31.629762606045425
rtibia 29.120948737714674
rfoot -6.743462254626734 -10.303683677342814
rtoes 6.203938003232637
lowerback 8.786055365010307 1.795736072380291 7.5155370122199505
upperback -0.22929874558709545 3.325229370920293 1.8427676709884366
thorax -5.008325457735533 1.491619370488435 -3.0595002998589385
lowerneck -16.246617989253576 -2.8327449204985102 -1.7205422055268198
upperneck 19.36161289006666 -3.626827749306923 1.1217722874945335
head 8.817709149526648 -1.7207911941488792 0.2669986419935501
lclavicle -4.553788237141019e-16 -7.780379686011522e-16
lhumerus -36.00328097301758 8.797222122134524 79.26887224105077
lradius 23.91060986863611
lwrist 4.151765667031151
lhand -29.104726032938803 19.239190210627992
lfingers 7.12502
lthumb -2.4894084132006027 49.221045421104
rclavicle -4.579773085809336e-16 -7.794050815270856e-16
rhumerus -23.343237285761173 -10.054873366299425 -82.26941310059684
rradius 29.916325473922065
rwrist -0.6226547086296383
rhand -18.64880182230345 21.894676443442336
rfingers 7.12502
rthumb 7.635606360501786 -7.827494052827277
